<svg xmlns="http://www.w3.org/2000/svg" xmlns:xlink="http://www.w3.org/1999/xlink" width="500" zoomAndPan="magnify" viewBox="0 0 375 374.999991" height="500" preserveAspectRatio="xMidYMid meet" version="1.0"><defs><clipPath id="2d5e9d9575"><path d="M 54.75 0 L 320.25 0 C 350.488281 0 375 24.511719 375 54.75 L 375 320.25 C 375 350.488281 350.488281 375 320.25 375 L 54.75 375 C 24.511719 375 0 350.488281 0 320.25 L 0 54.75 C 0 24.511719 24.511719 0 54.75 0 Z M 54.75 0 " clip-rule="nonzero"/></clipPath><clipPath id="222f15c101"><path d="M 22 55.9375 L 353 55.9375 L 353 319.1875 L 22 319.1875 Z M 22 55.9375 " clip-rule="nonzero"/></clipPath></defs><g clip-path="url(#2d5e9d9575)"><rect x="-37.5" width="450" fill="#ff5757" y="-37.499999" height="449.999989" fill-opacity="1"/></g><g clip-path="url(#222f15c101)"><path fill="#ffffff" d="M 184.394531 231.039062 C 186.222656 229.417969 189.019531 229.484375 190.769531 231.234375 L 213.441406 253.902344 C 216.371094 256.839844 214.296875 261.851562 210.144531 261.851562 L 164.808594 261.851562 C 160.660156 261.851562 158.582031 256.839844 161.515625 253.902344 L 184.183594 231.234375 C 184.253906 231.167969 184.324219 231.101562 184.394531 231.039062 M 348.234375 55.941406 L 49.25 55.941406 C 46.679688 55.941406 44.59375 58.023438 44.59375 60.597656 L 77.625 108.480469 C 77.625 111.054688 79.710938 113.140625 82.28125 113.140625 L 210.144531 113.140625 C 214.296875 113.140625 216.371094 118.15625 213.441406 121.089844 L 23.429688 311.101562 C 20.496094 314.035156 22.570312 319.050781 26.722656 319.050781 L 348.234375 319.050781 C 352.382812 319.050781 354.460938 314.035156 351.527344 311.101562 L 231.214844 190.789062 C 229.457031 189.03125 229.398438 186.210938 231.042969 184.382812 L 231.050781 184.375 C 231.101562 184.320312 231.160156 184.265625 231.214844 184.203125 L 351.527344 63.890625 C 354.460938 60.957031 352.382812 55.941406 348.234375 55.941406 " fill-opacity="1" fill-rule="nonzero"/></g><path fill="#a6a6a6" d="M 245.128906 204.703125 L 231.214844 190.789062 L 245.148438 204.679688 L 245.128906 204.703125 " fill-opacity="1" fill-rule="nonzero"/><path fill="#db3737" d="M 204.707031 245.128906 L 190.769531 231.234375 C 189.859375 230.328125 188.671875 229.871094 187.476562 229.871094 C 186.375 229.871094 185.273438 230.261719 184.394531 231.039062 L 231.042969 184.382812 C 230.253906 185.265625 229.851562 186.378906 229.851562 187.488281 C 229.851562 188.6875 230.304688 189.878906 231.214844 190.789062 L 245.128906 204.703125 L 204.707031 245.128906 " fill-opacity="1" fill-rule="nonzero"/></svg>